<?xml version="1.0" standalone="no"?>
<!DOCTYPE svg PUBLIC "-//W3C//DTD SVG 20010904//EN"
 "http://www.w3.org/TR/2001/REC-SVG-20010904/DTD/svg10.dtd">
<svg version="1.0" xmlns="http://www.w3.org/2000/svg"
 width="500.000000pt" height="500.000000pt" viewBox="0 0 500.000000 500.000000"
 preserveAspectRatio="xMidYMid meet">
<metadata>
Created by potrace 1.16, written by Peter Selinger 2001-2019
</metadata>
<g transform="translate(0.000000,500.000000) scale(0.100000,-0.100000)"
fill="#000000" stroke="none">
<path d="M1660 3833 c-38 -8 -81 -42 -96 -79 -11 -27 -14 -147 -14 -651 0
-583 1 -620 19 -653 39 -74 42 -75 332 -78 l259 -3 0 -69 c0 -68 0 -68 -30
-75 -40 -9 -80 -42 -96 -81 -15 -36 -19 -141 -6 -162 7 -10 108 -12 473 -10
l464 3 3 74 c2 42 -2 87 -9 103 -13 32 -52 63 -92 73 -26 7 -27 10 -27 75 l0
69 254 3 c239 3 256 4 282 24 15 11 36 31 46 45 18 24 19 57 18 664 0 708 4
658 -64 709 -26 20 -43 21 -289 24 -143 2 -271 1 -284 -3 -18 -4 -23 -12 -21
-28 l3 -22 270 -2 c175 -2 278 -7 291 -14 43 -22 44 -39 44 -524 l0 -465 -890
0 -890 0 0 478 0 479 23 21 c22 21 31 22 245 22 197 0 223 2 229 16 14 38 -21
44 -226 43 -108 -1 -207 -4 -221 -6z m1730 -1224 c0 -120 0 -121 -29 -150
l-29 -29 -827 0 c-876 0 -871 0 -889 45 -3 9 -6 70 -6 136 l0 119 890 0 890 0
0 -121z m-610 -309 l0 -70 -285 0 -285 0 0 70 0 70 285 0 285 0 0 -70z m116
-155 c9 -14 19 -45 22 -70 l5 -45 -422 0 -421 0 0 44 c0 29 7 52 21 70 l20 26
379 0 380 0 16 -25z"/>
<path d="M2572 3617 c-11 -13 -192 -636 -192 -662 0 -9 9 -15 25 -15 20 0 26
7 34 38 6 20 49 170 95 332 61 213 82 298 74 307 -13 16 -23 16 -36 0z"/>
<path d="M2202 3383 c-55 -43 -104 -85 -107 -93 -7 -17 20 -43 141 -136 66
-50 77 -55 90 -42 22 22 11 37 -76 103 -44 33 -79 63 -80 66 0 4 36 34 80 68
43 34 82 66 85 70 8 14 -5 41 -20 41 -7 0 -58 -35 -113 -77z"/>
<path d="M2664 3445 c-9 -23 -3 -30 84 -98 l83 -65 -86 -67 c-83 -65 -103 -96
-71 -108 20 -8 226 152 226 175 0 17 -198 178 -219 178 -7 0 -14 -7 -17 -15z"/>
<path d="M1012 1820 c-6 -14 -38 -90 -72 -170 -34 -80 -64 -151 -67 -158 -4
-10 1 -13 16 -10 17 2 30 19 50 68 l28 65 55 3 55 3 29 -71 c23 -56 33 -70 51
-70 22 0 13 24 -122 335 l-13 30 -10 -25z"/>
<path d="M1260 1662 c0 -175 1 -182 20 -182 19 0 20 7 20 131 l0 132 98 -104
c54 -57 113 -120 130 -139 l31 -35 1 183 c0 175 -1 182 -20 182 -19 0 -20 -7
-20 -132 l0 -133 -53 55 c-29 30 -87 93 -130 139 l-77 84 0 -181z"/>
<path d="M1640 1655 c0 -168 1 -175 20 -175 18 0 20 7 20 73 0 58 4 77 18 90
17 16 22 11 87 -73 51 -67 75 -90 92 -90 13 0 23 2 23 4 0 2 -36 48 -79 102
l-80 99 72 73 c63 64 69 72 47 72 -17 0 -48 -23 -102 -77 l-78 -78 0 78 c0 70
-2 77 -20 77 -19 0 -20 -7 -20 -175z"/>
<path d="M1950 1703 c0 -180 25 -222 128 -223 50 0 96 21 114 53 7 13 14 77
16 160 l4 137 -26 0 -26 0 0 -135 c0 -122 -2 -137 -20 -155 -26 -26 -89 -27
-121 -1 -23 18 -24 26 -27 155 -4 126 -5 136 -23 136 -18 0 -19 -9 -19 -127z"/>
<path d="M2270 1655 c0 -168 1 -175 20 -175 18 0 20 7 20 80 0 74 1 80 21 80
16 0 29 -18 57 -80 30 -65 41 -80 59 -80 26 0 23 10 -21 99 l-26 49 35 35 c77
77 19 167 -110 167 l-55 0 0 -175z"/>
<path d="M2619 1807 c-42 -28 -77 -79 -85 -124 -13 -67 32 -155 97 -188 53
-28 186 -12 160 19 -8 9 -27 12 -63 8 -68 -6 -111 16 -139 75 -29 60 -20 105
32 156 38 39 40 39 99 35 42 -3 64 0 71 9 9 10 5 15 -16 23 -47 18 -119 12
-156 -13z"/>
<path d="M2955 1807 c-105 -60 -115 -220 -17 -295 49 -38 141 -42 197 -10 113
66 113 241 0 305 -54 30 -126 30 -180 0z m156 -32 c90 -47 90 -193 0 -240 -91
-47 -201 17 -201 118 0 104 108 170 201 122z"/>
<path d="M3280 1654 l0 -177 74 5 c123 8 186 68 186 175 -1 106 -77 173 -197
173 l-63 0 0 -176z m145 122 c44 -19 75 -69 75 -121 0 -76 -61 -135 -140 -135
l-30 0 0 135 0 135 30 0 c17 0 46 -6 65 -14z"/>
<path d="M3610 1655 l0 -175 115 0 c108 0 115 1 115 20 0 19 -7 20 -90 20
l-90 0 0 60 0 60 75 0 c68 0 75 2 75 20 0 18 -7 20 -75 20 l-75 0 0 55 0 55
85 0 c78 0 85 2 85 20 0 19 -7 20 -110 20 l-110 0 0 -175z"/>
<path d="M3945 1805 c-18 -17 -25 -35 -25 -63 0 -45 24 -72 85 -98 52 -21 75
-42 75 -69 0 -52 -69 -71 -127 -36 -17 11 -34 17 -37 14 -27 -27 38 -73 102
-73 81 0 130 85 86 149 -9 13 -45 36 -80 52 -67 30 -77 46 -54 90 12 21 59 26
92 8 15 -8 23 -8 32 1 19 20 -29 50 -81 50 -33 0 -50 -6 -68 -25z"/>
</g>
</svg>
